<svg width="19" height="20" viewBox="0 0 19 20" fill="none" xmlns="http://www.w3.org/2000/svg">
<path fill-rule="evenodd" clip-rule="evenodd" d="M14.9719 0H14.3994C14.0484 0 13.764 0.28455 13.764 0.63515V2.78095H11.6384C11.2936 2.78095 11.0136 3.0606 11.0136 3.40558V3.93782C11.0136 4.2828 11.2936 4.56245 11.6384 4.56245H13.764V6.73917C13.764 7.09048 14.0484 7.37467 14.3994 7.37467H14.9719C15.3235 7.37467 15.6079 7.09048 15.6079 6.73917V4.56245H17.7018C18.0465 4.56245 18.3265 4.2828 18.3265 3.93782V3.40558C18.3265 3.0606 18.0465 2.78095 17.7018 2.78095H15.6079V0.63515C15.6079 0.28455 15.3235 0 14.9719 0ZM8.23267 2.7497H4.6403H2.57746V2.90848C2.42375 2.81715 2.25386 2.7497 2.06159 2.7497H1.03111C0.46111 2.7497 0 3.21272 0 3.78185C0 4.35168 0.46111 4.81398 1.03111 4.81398H2.06159C2.25386 4.81398 2.42375 4.7476 2.57746 4.65555V4.81398H3.17421L5.18976 12.8966C5.18603 12.9183 5.1803 12.9392 5.17459 12.96C5.16504 12.9948 5.15554 13.0295 5.15554 13.0673C5.15554 13.6371 5.61725 14.0988 6.18662 14.0988H13.4044C13.9738 14.0988 14.4355 13.6371 14.4355 13.0673C14.4355 12.4971 13.9738 12.0355 13.4044 12.0355H7.00929L6.75228 11.0037H13.4591C13.8182 11.0037 14.1194 10.7891 14.2886 10.4841L14.3583 10.4883L14.4868 10.1247H12.6968C11.5283 10.1247 10.4646 9.67572 9.66882 8.94083H6.23766L5.20905 4.81398H8.23267V2.7497ZM8.24821 17.7095C8.24821 16.8551 7.55625 16.1616 6.70249 16.1616C5.84813 16.1616 5.15554 16.8551 5.15554 17.7095C5.15554 18.5646 5.84813 19.257 6.70249 19.257C7.55625 19.257 8.24821 18.5646 8.24821 17.7095ZM14.4355 17.7095C14.4355 16.8551 13.7429 16.1616 12.8891 16.1616C12.0347 16.1616 11.3422 16.8551 11.3422 17.7095C11.3422 18.5646 12.0347 19.257 12.8891 19.257C13.7429 19.257 14.4355 18.5646 14.4355 17.7095Z" fill="currentColor"/>
</svg>
